<svg xmlns="http://www.w3.org/2000/svg" viewBox="0 0 512 512" fill="#808080">
  <path fill-rule="evenodd" d="M403 19c-9 1-23 5-32 8-12 4-26 16-31 26q-3 4-4 11c-2 5-10 68-10 73l6 7q13 15 13 36c0 30-25 68-64 95-15 11-15 10-19 25q-5 21-20 44c-10 16-12 21-8 29q2 6 16 14 29 19 43 11c9-4 23-28 30-51q6-16 9-42c3-22 4-23 22-21q22 2 40 11c10 5 11 6 22 17l20 21q12 14 23 13 7 1 12-2l28-18q18-13 10-27c-2-5-34-38-45-47q-31-27-71-37-15-4-15-6c0-3 1-5 9-14q10-14 26-44c17-34 21-39 44-47 25-8 32-15 33-34 0-12-2-18-11-28-6-6-9-8-18-13a100 100 0 0 0-58-10M165 86c-27 2-57 12-80 27A184 184 0 0 0 6 272c1 32 3 40 10 47q5 5 20 10c8 2 9 2 34 2 27 0 41-1 62-6 21-4 50-14 74-24 53-23 94-57 112-94q19-42-8-70c-14-14-44-32-68-41-26-10-45-12-77-10M17 345Q5 356 4 368q0 9 5 12 6 5 23 0h9q4 2-13 11C8 401 4 404 2 415c-2 9 4 59 9 68 7 13 22 15 33 4l9-12c6-10 10-14 21-21q18-9 27-19 26-28 35-75 3-17-1-20l-9 1a270 270 0 0 1-89 3c-14-5-13-5-20 1"/>
</svg>
