<?xml version="1.0" standalone="no"?>
<!DOCTYPE svg PUBLIC "-//W3C//DTD SVG 20010904//EN"
 "http://www.w3.org/TR/2001/REC-SVG-20010904/DTD/svg10.dtd">
<svg version="1.0" xmlns="http://www.w3.org/2000/svg"
 width="626.000000pt" height="626.000000pt" viewBox="0 0 626.000000 626.000000"
 preserveAspectRatio="xMidYMid meet">
<metadata>
Created by potrace 1.16, written by Peter Selinger 2001-2019
</metadata>
<g transform="translate(0.000000,626.000000) scale(0.100000,-0.100000)"
fill="#000000" stroke="none">
<path d="M4755 5956 c-120 -26 -201 -54 -312 -109 -187 -92 -300 -218 -360
-402 -23 -71 -26 -97 -27 -220 0 -77 6 -184 13 -239 16 -115 9 -290 -15 -397
-16 -69 -16 -69 36 -126 146 -159 206 -302 216 -513 12 -232 -33 -439 -142
-655 -272 -538 -850 -970 -1654 -1235 -131 -44 -329 -100 -420 -120 -549 -122
-938 -155 -1306 -110 -226 28 -509 105 -502 136 2 7 46 56 98 110 105 107 88
101 215 74 317 -68 802 -47 1265 54 106 23 243 57 270 66 14 5 79 25 145 45
278 86 604 227 815 355 433 260 768 621 878 945 38 114 47 168 46 290 -1 104
-5 130 -29 195 -53 143 -122 222 -300 345 -365 252 -649 385 -960 451 -148 32
-405 43 -577 25 -521 -54 -989 -312 -1327 -732 -206 -254 -360 -593 -421 -919
-6 -36 -16 -85 -20 -110 -29 -146 -37 -455 -19 -695 13 -164 25 -136 -170
-369 -50 -61 -94 -121 -98 -134 -7 -30 22 -61 95 -100 59 -31 228 -92 255 -92
27 0 28 -17 3 -47 -80 -96 -108 -199 -63 -241 47 -44 67 -41 412 58 94 27 192
56 219 65 30 10 52 13 58 7 12 -12 -13 -109 -39 -154 -38 -65 -169 -145 -438
-264 -160 -72 -206 -105 -223 -162 -18 -60 -15 -103 23 -345 48 -298 61 -357
90 -399 46 -69 143 -90 222 -50 49 25 93 78 158 187 61 102 85 127 143 153 26
11 100 44 164 72 314 139 517 328 661 616 70 141 108 250 136 399 13 63 26
105 38 117 13 12 71 30 174 53 215 48 416 107 604 177 166 62 600 270 693 332
63 42 87 46 79 14 -3 -13 -15 -69 -27 -125 -30 -149 -72 -266 -156 -437 -128
-258 -114 -284 196 -387 194 -65 294 -75 350 -37 51 35 92 102 148 245 122
311 160 558 148 974 -5 190 -4 228 8 238 8 7 59 22 113 33 79 17 132 21 273
21 232 0 343 -25 525 -115 115 -58 185 -111 338 -257 75 -72 151 -138 169
-147 42 -22 114 -22 156 0 17 9 111 91 207 182 182 174 204 203 191 267 -9 47
-50 92 -136 153 -44 30 -130 103 -192 162 -201 190 -327 274 -552 364 -219 87
-442 124 -692 116 -79 -3 -144 -2 -144 1 0 3 33 50 74 104 141 189 256 417
341 679 120 371 158 462 230 563 55 77 116 127 202 166 225 102 270 132 318
220 28 50 30 61 30 159 0 96 -3 110 -28 160 -43 83 -90 134 -173 189 -182 119
-462 161 -719 107z m-2215 -1236 c41 -6 99 -13 128 -16 29 -4 55 -10 58 -15 2
-4 -47 -114 -110 -243 -115 -236 -115 -236 -183 -236 -37 0 -165 -3 -283 -6
-215 -7 -215 -7 -269 112 -30 66 -74 159 -98 208 -24 49 -40 93 -36 97 23 23
241 76 408 98 84 12 296 12 385 1z m386 -89 c5 -5 34 -16 64 -26 157 -50 534
-267 713 -410 116 -92 154 -179 143 -324 -18 -235 -132 -445 -375 -693 -41
-43 -80 -78 -86 -78 -5 0 -22 20 -37 43 -29 47 -59 90 -199 287 -259 365 -489
703 -489 719 0 7 28 69 61 139 100 207 149 312 149 320 0 12 22 32 35 32 6 0
15 -4 21 -9z m-1320 -88 c8 -25 110 -253 151 -337 18 -38 33 -74 33 -79 0 -5
-26 -39 -58 -76 -249 -286 -254 -291 -271 -282 -9 5 -50 18 -91 29 -41 11
-149 41 -240 67 -91 26 -183 50 -204 54 -22 3 -41 11 -43 16 -6 19 161 218
269 320 109 104 197 170 340 254 92 55 106 59 114 34z m1082 -738 c208 -303
451 -651 514 -734 26 -35 48 -69 48 -76 0 -15 -125 -105 -255 -182 -289 -174
-679 -328 -1040 -412 -49 -12 -107 -26 -128 -32 -45 -12 -57 -6 -57 29 0 15
-9 93 -20 172 -132 937 -149 1074 -136 1089 7 9 50 61 97 116 46 55 112 134
148 175 35 41 66 77 68 79 4 6 380 18 503 17 94 -1 94 -1 258 -241z m-1765
-55 c150 -44 447 -127 485 -135 36 -7 36 -8 51 -135 9 -78 48 -368 102 -755
42 -309 50 -360 55 -377 5 -16 -4 -22 -27 -20 -3 1 -44 -5 -90 -13 -249 -40
-613 -43 -824 -7 -100 18 -100 18 -106 62 -25 175 -18 613 12 770 37 196 84
359 137 485 68 160 72 167 87 161 9 -3 61 -19 118 -36z"/>
</g>
</svg>
